<?xml version="1.0" encoding="utf-8"?>
<!-- Generator: Adobe Illustrator 21.0.0, SVG Export Plug-In . SVG Version: 6.00 Build 0)  -->
<svg version="1.1" id="图层_1" xmlns="http://www.w3.org/2000/svg" xmlns:xlink="http://www.w3.org/1999/xlink" x="0px" y="0px"
	 viewBox="0 0 792 792" style="enable-background:new 0 0 792 792;" xml:space="preserve">
<g>
	<path d="M554.7,450.2V265.9L411.8,161.1v-53.7h127V39h-145v122.5L249.2,271.7v178.6H71v303.1h262.6V637c0-34.4,28.7-62.7,63.9-62.7
		c36,0,65.5,28.7,65.5,63.9v115.1h257.6V450.2H554.7z M399.9,404.4c-35.2,0-63.9-27.9-63.9-62.7c0-34.4,28.7-62.7,63.9-62.7
		c35.2,0,63.9,27.9,63.9,62.7C463.8,376.5,435.1,404.4,399.9,404.4L399.9,404.4z M399.9,404.4"/>
</g>
</svg>
