<?xml version="1.0" encoding="utf-8"?>
<!-- Generator: Adobe Illustrator 21.0.0, SVG Export Plug-In . SVG Version: 6.00 Build 0)  -->
<svg version="1.1" id="图层_1" xmlns="http://www.w3.org/2000/svg" xmlns:xlink="http://www.w3.org/1999/xlink" x="0px" y="0px"
	 viewBox="0 0 792 792" style="enable-background:new 0 0 792 792;" xml:space="preserve">
<style type="text/css">
	.st0{clip-path:url(#SVGID_2_);fill:#515151;}
</style>
<g>
	<g>
		<defs>
			<rect id="SVGID_1_" x="68" y="32" width="655.9" height="729.8"/>
		</defs>
		<clipPath id="SVGID_2_">
			<use xlink:href="#SVGID_1_"  style="overflow:visible;"/>
		</clipPath>
		<path class="st0" d="M578.2,324v-73.4H213V324H578.2z M578.2,469.1v-71.7H213v71.7H578.2z M469,615.9v-73.4H213v73.4H469z
			 M395.6,105.6c-10.2,0-18.8,3.4-25.6,10.2c-6.8,6.8-10.2,15.3-10.2,25.6c0,10.2,3.4,19.1,10.2,26.5c6.8,7.4,15.4,11.1,25.6,11.1
			c10.2,0,18.8-3.7,25.6-11.1c6.8-7.4,10.2-16.2,10.2-26.5c0-10.2-3.4-18.8-10.2-25.6C414.3,109,405.8,105.6,395.6,105.6
			L395.6,105.6z M649.8,105.6c19.3,0,36.4,7.4,51.2,22.2c14.8,14.8,22.2,31.8,22.2,51.2v508.6c0,19.3-7.4,36.4-22.2,51.2
			c-14.8,14.8-31.8,22.2-51.2,22.2H141.2c-19.3,0-36.4-7.4-51.2-22.2c-14.8-14.8-22.2-31.8-22.2-51.2V178.9
			c0-19.3,7.4-36.4,22.2-51.2c14.8-14.8,31.8-22.2,51.2-22.2h151.9c8-21.6,21-39.3,39.2-52.9c18.2-13.6,39.2-20.5,63.1-20.5
			c23.9,0,44.9,6.8,63.1,20.5c18.2,13.7,31.3,31.3,39.2,52.9L649.8,105.6L649.8,105.6z M649.8,105.6"/>
	</g>
</g>
</svg>
