<?xml version="1.0" encoding="utf-8"?>
<!-- Generator: Adobe Illustrator 21.0.0, SVG Export Plug-In . SVG Version: 6.00 Build 0)  -->
<svg version="1.1" id="图层_1" xmlns="http://www.w3.org/2000/svg" xmlns:xlink="http://www.w3.org/1999/xlink" x="0px" y="0px"
	 viewBox="0 0 792 792" style="enable-background:new 0 0 792 792;" xml:space="preserve">
<style type="text/css">
	.st0{fill-rule:evenodd;clip-rule:evenodd;}
</style>
<g>
	<path class="st0" d="M732.9,709.5L537.6,514.3c48-50.5,77.6-118.6,77.6-193.7C615.2,165.1,489.1,39,333.6,39S52,165.1,52,320.6
		c0,155.5,126.1,281.6,281.6,281.6c61.9,0,118.9-20.2,165.4-54l197.6,197.6c10,10,26.2,10,36.2,0
		C742.9,735.7,742.9,719.6,732.9,709.5L732.9,709.5z M333.6,556.4c-127.2,0-230.4-103.2-230.4-230.4
		c0-127.3,103.2-230.4,230.4-230.4C460.9,95.6,564,198.7,564,326C564,453.2,460.9,556.4,333.6,556.4L333.6,556.4z"/>
</g>
</svg>
