<?xml version="1.0" encoding="utf-8"?>
<!-- Generator: Adobe Illustrator 21.0.0, SVG Export Plug-In . SVG Version: 6.00 Build 0)  -->
<svg version="1.1" id="图层_1" xmlns="http://www.w3.org/2000/svg" xmlns:xlink="http://www.w3.org/1999/xlink" x="0px" y="0px"
	 viewBox="0 0 792 792" style="enable-background:new 0 0 792 792;" xml:space="preserve">
<g>
	<g>
		<path d="M651.7,119h-17.3c-156.1,0-223-74.3-223-74.3L394,24.9l-17.3,17.3c0,0-66.9,74.3-223,74.3h-37.2v334.6
			c0,89.2,27.3,215.6,272.6,314.7l5,2.5l7.4-2.5C644.3,669.2,674,540.3,674,451.1V119H651.7z M371.7,537.9L232.9,401.6l37.2-32.2
			l74.3,59.5c0,0,101.6-119,203.2-173.5l14.9,17.3C560,272.7,433.6,386.7,371.7,537.9L371.7,537.9z M371.7,537.9"/>
	</g>
</g>
</svg>
