<?xml version="1.0" encoding="utf-8"?>
<!-- Generator: Adobe Illustrator 21.0.0, SVG Export Plug-In . SVG Version: 6.00 Build 0)  -->
<svg version="1.1" id="图层_1" xmlns="http://www.w3.org/2000/svg" xmlns:xlink="http://www.w3.org/1999/xlink" x="0px" y="0px"
	 viewBox="0 0 792 792" style="enable-background:new 0 0 792 792;" xml:space="preserve">
<style type="text/css">
	.st0{clip-path:url(#SVGID_2_);}
</style>
<g>
	<g>
		<defs>
			<rect id="SVGID_1_" x="75" y="69" width="641.9" height="655.9"/>
		</defs>
		<clipPath id="SVGID_2_">
			<use xlink:href="#SVGID_1_"  style="overflow:visible;"/>
		</clipPath>
		<path class="st0" d="M289,540.5c0-23.3,3.4-45.6,10.1-66.7c6.7-21.1,16.2-40.6,28.4-58.4c12.2-17.8,26.8-33.6,43.6-47.4
			c16.8-13.8,35.3-24.9,55.4-33.2c0,0,7.3-10.1,8.3-12.9c4-1.2,7.7-3.4,11.3-6.5c3.2-2.8,6-6.6,8.6-11.6c2.6-4.9,4.2-11.8,5-20.5
			c0.8-6.3,0.7-11.7-0.3-16c-1-4.3-2.3-7.9-3.9-10.7c-1.6-3.2-3.8-5.7-6.5-7.7c0-16.2-1-32.2-3-48c-2-13.8-5.3-28.4-10.1-43.6
			c-4.7-15.2-12.2-29.1-22.5-41.8c-4.3-5.5-10.4-11.1-18.1-16.6c-7.7-5.5-16.5-10.5-26.4-14.8c-9.9-4.3-20.4-7.8-31.7-10.4
			c-11.3-2.6-22.6-3.9-34.1-3.9c-9.1,0-18.5,0.7-28.1,2.1c-9.7,1.4-19.5,4.1-29.3,8c-9.9,3.9-19.4,9.4-28.4,16.3
			c-9.1,6.9-17.6,15.9-25.5,27c-8.3,11.5-14.4,24.5-18.4,39.1c-4,14.6-6.7,28.3-8.3,40.9c-1.6,15-2.4,30-2.4,45.1
			c-3.6,3.9-6.1,8.1-7.7,12.4c-2,4.3-3.2,9.3-3.6,14.8c-0.4,5.5,0.4,11.7,2.4,18.4c2,6.7,4.3,11.9,7.1,15.4c2.8,3.6,5.3,6.3,7.7,8.3
			c2.8,2,5.5,3.4,8.3,4.1c5.6,13.2,7.2,16,21.3,33.1c6.7,5.5,12.8,11,18.4,16.3c5.5,5.3,8.7,12.5,9.5,21.6
			c0.4,6.3,0.6,12.1,0.6,17.2c0,5.1-1,10.1-3,14.8c-2,4.7-5.2,9.6-9.8,14.5c-4.5,4.9-11,10-19.3,15.1c-7.1,4.4-40.7,16.7-49.8,19.3
			c-9.1,2.6-31.3,14.4-38.4,19c-7.1,4.5-13.1,10-18.1,16.3c-4.9,6.3-8.2,14.4-9.8,24.3c-3.9,25.7-4.8,46.7-2.7,63.1
			c2.2,16.4,5.4,26.2,9.8,29.3c2.4,2,8.1,4,17.2,5.9c9.1,2,8.2,4,21.2,5.9c13,2,27.6,3.9,43.6,5.6c16.1,1.8,32.2,3.4,48.3,4.7
			c16.2,1.4,31.9,2.5,47.1,3.3c15.2,0.8,28.5,1.2,40,1.2h16c-9.5-16.6-16.9-34.3-22.2-53.1C291.6,580.7,289,561,289,540.5L289,540.5
			z M605.7,520.4c-8.8,0-16.7,3.8-22.2,9.9l-50.2-25.1c4.3-6.1,6.6-13.3,6.6-20.7c0-19.8-16.1-35.9-35.9-35.9
			c-19.8,0-35.9,16.1-35.9,35.9c0,8.3,2.8,15.9,7.5,22l-38.9,51.8c-3.4-1.3-6.9-1.9-10.5-1.9c-16.5,0-29.9,13.4-29.9,29.9
			c0,16.5,13.4,29.9,29.9,29.9c16.5,0,29.9-13.4,29.9-29.9c0-6.5-2.1-12.8-6-18l38.5-51.4c4.8,2.3,10.1,3.5,15.4,3.5
			c7.8,0,15.3-2.5,21.6-7.2l52.4,26.2c-1.4,3.5-2.1,7.2-2.1,10.9c0,16.5,13.4,29.9,29.9,29.9c16.5,0,29.9-13.4,29.9-29.9
			C635.6,533.8,622.2,520.3,605.7,520.4L605.7,520.4z M712.2,693.4l-54.5-42.8c9.1-12.1,16.9-25.5,23.2-40
			c9.8-22.6,14.7-46.6,14.7-72.1c0-25.5-4.9-49.5-14.7-72.1c-9.8-22.6-23-42.3-39.7-59.1c-16.7-16.9-36.3-30.2-58.8-40
			c-22.6-9.8-46.6-14.7-72.1-14.7c-25.9,0-50.1,4.9-72.7,14.7c-22.6,9.8-42.2,23.1-58.8,40c-16.7,16.9-29.9,36.6-39.7,59.1
			c-9.8,22.6-14.7,46.6-14.7,72.1c0,25.5,4.9,49.5,14.7,72.1c9.8,22.6,23,42.3,39.7,59.1c16.7,16.9,36.3,30.1,58.8,39.7
			c22.6,9.6,46.8,14.4,72.7,14.4c25.5,0,49.5-4.8,72.1-14.4c19.9-8.5,37.5-19.7,52.8-33.9l53.2,41.7c5.8,5.8,15.2,5.8,21,0l3-3
			C718,708.6,718,699.2,712.2,693.4L712.2,693.4z M509.9,688c-82.7,0-149.7-67-149.7-149.7c0-82.7,67-149.7,149.7-149.7
			c82.7,0,149.7,67,149.7,149.7C659.6,621,592.6,688,509.9,688L509.9,688z M509.9,688"/>
	</g>
</g>
</svg>
