<?xml version="1.0" encoding="utf-8"?>
<!-- Generator: Adobe Illustrator 21.0.0, SVG Export Plug-In . SVG Version: 6.00 Build 0)  -->
<svg version="1.1" id="图层_1" xmlns="http://www.w3.org/2000/svg" xmlns:xlink="http://www.w3.org/1999/xlink" x="0px" y="0px"
	 viewBox="0 0 792 792" style="enable-background:new 0 0 792 792;" xml:space="preserve">
<style type="text/css">
	.st0{fill-rule:evenodd;clip-rule:evenodd;}
</style>
<g>
	<path class="st0" d="M484.5,684.4c0-34.9,0.1-67.8,0-100.7c-0.1-26.7-5.7-32.5-32-32.6c-39-0.2-78-0.1-117.1,0
		c-26.7,0.1-31.8,4.8-32.3,32.3c-0.5,32.8-0.1,65.7-0.1,100c-7.4,0.9-12.5,1.9-17.7,2c-35.4,0.2-70.7,0.4-106.1,0
		c-42-0.5-51.9-11-51.6-52.2c0.3-37.2-0.3-74.4,0.7-111.5c0.2-7.4,4.1-16.7,9.5-21.7c70.5-65.6,141.5-130.7,212.6-195.6
		c28.4-25.9,61.9-26.2,90.3,0C512,370,582.8,436.1,653.4,502.5c5,4.7,8.4,13.4,8.6,20.3c0.8,39,0.7,78,0.3,117.1
		c-0.3,25.8-13,43.1-36.9,44C579.3,685.6,533,684.4,484.5,684.4L484.5,684.4z M387,106c34.8-0.1,52.9,11.5,69.1,27.2
		c62.6,60.7,125.4,121.2,188.1,181.8c28.9,28,57.8,56,86.7,84.1c3.1,3,6.1,6,8.9,9.2c16.1,18.2,18.2,37.7,6,53
		c-12.9,16.1-38.9,19.9-58.2,8.1c-5.1-3.2-9.8-7.3-14.2-11.4C602,390.5,530.7,323,459.5,255.4c-52.7-50-72.9-50.4-126.1-1
		c-71,66-141.5,132.6-213.1,198c-10.1,9.2-24.6,15.6-38.1,18.7c-17.7,4.1-32.3-4.9-40.6-21.2c-8.3-16.4-5-32.2,6.7-45.9
		c6.7-7.8,14.6-14.7,22.2-21.7c87.8-82,175.6-163.9,263.2-246.1C352.1,118.9,372.1,106.2,387,106L387,106z"/>
</g>
</svg>
