<!-- Generated by IcoMoon.io -->
<svg version="1.1" xmlns="http://www.w3.org/2000/svg" width="1024" height="1024" viewBox="0 0 1024 1024">
<title></title>
<g id="icomoon-ignore">
</g>
<path d="M510.845 929.129c-218.447 0-396.269-177.823-396.269-396.391 0-133.671 66.896-257.49 178.917-331.198 10.825-7.055 25.299-4.135 32.353 6.69 7.176 10.825 4.135 25.299-6.69 32.353-98.885 65.072-157.875 174.295-157.875 292.154 0 192.783 156.781 349.564 349.564 349.564s349.564-156.781 349.564-349.564c0-117.981-59.112-227.083-157.875-292.154-10.825-7.055-13.744-21.65-6.69-32.353 7.176-10.703 21.528-13.744 32.353-6.69 112.021 73.708 178.917 197.527 178.917 331.198 0.122 218.568-177.701 396.391-396.269 396.391v0zM510.845 436.286c-12.893 0-23.353-10.46-23.353-23.353v-293.006c0-12.893 10.46-23.353 23.353-23.353s23.353 10.46 23.353 23.353v292.884c0.122 13.014-10.46 23.475-23.353 23.475v0z"></path>
</svg>
